<?xml version="1.0" encoding="UTF-8"?>
<svg version="1.1" xmlns="http://www.w3.org/2000/svg" width="1024" height="1024">
<path d="M0 0 C337.92 0 675.84 0 1024 0 C1024 337.92 1024 675.84 1024 1024 C686.08 1024 348.16 1024 0 1024 C0 686.08 0 348.16 0 0 Z " fill="#0D0D0D" transform="translate(0,0)"/>
<path d="M0 0 C19.47 0 38.94 0 59 0 C69.03487276 11.14985862 69.03487276 11.14985862 73.1875 16.5625 C77.36261627 21.95711066 81.64623997 27.24862458 86 32.5 C90.80713884 38.30345397 95.52697468 44.16239161 100.16137695 50.10449219 C103.67319455 54.60264355 107.26960244 59.02593694 110.89453125 63.43359375 C115.61321108 69.18530553 120.2324909 75.01480699 124.81689453 80.8737793 C129.86293344 87.3210962 134.98784806 93.69735638 140.16503906 100.03979492 C143.63815043 104.30210975 147.05787201 108.60080921 150.4375 112.9375 C155.11713316 118.93844134 159.94358679 124.80963637 164.79736328 130.67016602 C169.00261087 135.75887383 173.11137956 140.91349234 177.17236328 146.11767578 C180.57515461 150.47440345 184.05120943 154.76517612 187.5625 159.03515625 C194.62398655 167.62436825 201.65384653 176.23777682 208.5 185 C214.01546856 192.05815155 219.66206828 199.00588996 225.32519531 205.94580078 C227.58156238 208.71330406 229.83192577 211.48565984 232.08227539 214.25805664 C237.7054842 221.18519792 243.33882733 228.10382629 249 235 C249.54333984 235.66209473 250.08667969 236.32418945 250.64648438 237.00634766 C252.49252567 239.25502553 254.33984728 241.50264605 256.1875 243.75 C256.77007568 244.45954834 257.35265137 245.16909668 257.95288086 245.90014648 C258.51885986 246.58794189 259.08483887 247.2757373 259.66796875 247.984375 C260.16578857 248.58991211 260.6636084 249.19544922 261.17651367 249.81933594 C263.75570603 252.90373092 266.38338763 255.94728557 269 259 C269.33 192.01 269.66 125.02 270 56 C234.36 56 198.72 56 162 56 C162 37.52 162 19.04 162 0 C250.11 0 338.22 0 429 0 C429 18.48 429 36.96 429 56 C396.99 56 364.98 56 332 56 C332 149.06 332 242.12 332 338 C308.24 338 284.48 338 260 338 C253.11791359 329.97089919 246.38852955 322.04745067 239.92578125 313.71484375 C236.6288434 309.49873195 233.22341118 305.37406465 229.8125 301.25 C225.53529059 296.07830412 221.28458616 290.89141827 217.109375 285.63671875 C214.32474316 282.15592895 211.50425028 278.70481217 208.6875 275.25 C204.59422803 270.22649233 200.54618008 265.17330246 196.5625 260.0625 C192.46056388 254.80248554 188.25422134 249.63749844 184 244.5 C179.28702568 238.8085006 174.65547156 233.06675554 170.11328125 227.23828125 C166.63146131 222.77910835 163.07757644 218.38260975 159.5 214 C155.46789056 209.06057733 151.48194478 204.09176728 147.5625 199.0625 C142.80767822 192.96634941 137.90969835 186.99523772 132.98291016 181.03759766 C129.31394513 176.60026299 125.68541787 172.13541374 122.1015625 167.62890625 C119.35709984 164.19577731 116.58543272 160.78515014 113.8125 157.375 C113.26118408 156.69679199 112.70986816 156.01858398 112.1418457 155.31982422 C109.27003984 151.78816162 106.39580515 148.25849322 103.51953125 144.73046875 C102.95065186 144.03195801 102.38177246 143.33344727 101.7956543 142.61376953 C100.72374402 141.2976523 99.65105818 139.98216613 98.57739258 138.66748047 C95.25037238 134.58106104 91.99470222 130.44427043 88.76757812 126.27856445 C87.05511203 124.07104427 85.33209341 121.87223745 83.60546875 119.67578125 C82.46614583 118.22135417 81.32682292 116.76692708 80.1875 115.3125 C79.63513672 114.61189453 79.08277344 113.91128906 78.51367188 113.18945312 C73.10322086 106.26825188 68.12446765 99.17425471 63 92 C62.67 173.18 62.34 254.36 62 338 C41.54 338 21.08 338 0 338 C0 226.46 0 114.92 0 0 Z " fill="#9C2AF8" transform="translate(298,277)"/>
<path d="M0 0 C8.1984375 -0.0928125 8.1984375 -0.0928125 16.5625 -0.1875 C19.12946655 -0.22846802 19.12946655 -0.22846802 21.74829102 -0.27026367 C23.12515561 -0.27903653 24.50202807 -0.28667857 25.87890625 -0.29296875 C26.92637024 -0.3159906 26.92637024 -0.3159906 27.99499512 -0.33947754 C33.76468362 -0.34251156 38.5085333 0.82186177 42.92578125 4.68359375 C43.61220703 5.55177734 43.61220703 5.55177734 44.3125 6.4375 C44.78300781 7.01371094 45.25351562 7.58992187 45.73828125 8.18359375 C49.87907735 14.14480175 49.69440102 19.89106957 49 27 C47.32142847 32.44582014 43.41554471 35.68834147 39 39 C39.64788475 42.24034471 40.82305432 44.67581986 42.50390625 47.51171875 C42.99697266 48.35154297 43.49003906 49.19136719 43.99804688 50.05664062 C44.51431641 50.92482422 45.03058594 51.79300781 45.5625 52.6875 C46.58646813 54.41949071 47.60870335 56.15250752 48.62890625 57.88671875 C49.08338135 58.65201904 49.53785645 59.41731934 50.00610352 60.20581055 C51 62 51 62 51 63 C46.29524908 64.11265642 41.54092407 65.01597326 37 63 C31.45422601 57.48088839 27.45877471 49.37632413 25 42 C21.04 42 17.08 42 13 42 C13 48.93 13 55.86 13 63 C8.71 63 4.42 63 0 63 C0 42.21 0 21.42 0 0 Z " fill="#F5F5F6" transform="translate(472,668)"/>
<path d="M0 0 C12 0 12 0 15.875 3.8125 C16.85866715 5.25617015 17.83885329 6.70263924 18.78466797 8.17138672 C20.77685187 11.16886711 22.95357947 14.02780929 25.10400391 16.9128418 C26.86218977 19.27386769 28.60312229 21.6465959 30.33984375 24.0234375 C34.52229307 29.71014021 38.76451547 35.35268729 43 41 C43 27.47 43 13.94 43 0 C46.96 0 50.92 0 55 0 C55 20.79 55 41.58 55 63 C43 63 43 63 39.4765625 59.73046875 C38.48526624 58.24251866 37.53642606 56.72566979 36.625 55.1875 C35.54913165 53.54019063 34.47092154 51.89440879 33.390625 50.25 C32.84341797 49.39019531 32.29621094 48.53039062 31.73242188 47.64453125 C28.80894219 43.18185764 25.58023373 38.94988537 22.375 34.6875 C21.21309483 33.1311794 20.05404973 31.57271774 18.8984375 30.01171875 C18.41036621 29.35647217 17.92229492 28.70122559 17.41943359 28.02612305 C15.83190345 25.7600562 14.42351882 23.37253137 13 21 C13 34.86 13 48.72 13 63 C8.71 63 4.42 63 0 63 C0 42.21 0 21.42 0 0 Z " fill="#F5F5F5" transform="translate(610,668)"/>
<path d="M0 0 C12 0 12 0 15.70703125 3.453125 C16.78230962 5.02538218 17.81576682 6.62681203 18.8125 8.25 C19.97698781 9.98453769 21.14373728 11.71755869 22.3125 13.44921875 C22.90675781 14.35591309 23.50101562 15.26260742 24.11328125 16.19677734 C27.32063011 20.96214738 30.82870729 25.49755902 34.3125 30.0625 C35.58183318 31.73906647 36.84895718 33.41730912 38.11328125 35.09765625 C38.64735596 35.80414307 39.18143066 36.51062988 39.73168945 37.23852539 C41 39 41 39 42 41 C42 27.47 42 13.94 42 0 C45.96 0 49.92 0 54 0 C54.75538679 21.01019962 55.14959965 41.9754959 55 63 C44.63331118 64.03698312 44.63331118 64.03698312 41.09423828 61.79003906 C39.53544267 59.98869337 38.29951105 58.16080058 37.0625 56.125 C36.07314744 54.66000037 35.08355475 53.1951629 34.09375 51.73046875 C33.59359375 50.95880371 33.0934375 50.18713867 32.578125 49.39208984 C29.8818625 45.30514987 26.95470214 41.38684053 24.0625 37.4375 C23.00985588 35.97920745 21.95899546 34.51962527 20.91015625 33.05859375 C20.46808838 32.44298584 20.02602051 31.82737793 19.57055664 31.19311523 C17.37752489 28.13077974 15.18929266 25.06500972 13 22 C12.67 35.53 12.34 49.06 12 63 C8.04 63 4.08 63 0 63 C0 42.21 0 21.42 0 0 Z " fill="#F7F7F7" transform="translate(235,668)"/>
<path d="M0 0 C4.95 0 9.9 0 15 0 C21.25448561 15.1160514 27.33075494 30.28815444 33.1875 45.5625 C33.4789389 46.31932068 33.77037781 47.07614136 34.07064819 47.855896 C34.89851581 50.00798323 35.72159521 52.16183337 36.54296875 54.31640625 C36.79244263 54.96417526 37.0419165 55.61194427 37.2989502 56.27934265 C39 60.76970782 39 60.76970782 39 63 C34.38 63 29.76 63 25 63 C21 53.375 21 53.375 21 50 C7.635 50.495 7.635 50.495 -6 51 C-7.32 54.96 -8.64 58.92 -10 63 C-14.62 63 -19.24 63 -24 63 C-19.65155752 51.35742942 -15.24784113 39.73637277 -10.82128906 28.12329102 C-9.73700197 25.27839647 -8.65362128 22.43315783 -7.5703125 19.58789062 C-6.87505343 17.76300048 -6.17974287 15.93812994 -5.484375 14.11328125 C-5.16353943 13.27058182 -4.84270386 12.42788239 -4.512146 11.55964661 C-4.21133118 10.77079575 -3.91051636 9.98194489 -3.60058594 9.16918945 C-3.33888611 8.4824263 -3.07718628 7.79566315 -2.80755615 7.08808899 C-1.89089255 4.71788207 -0.94381128 2.35952819 0 0 Z " fill="#F7F7F7" transform="translate(420,668)"/>
<path d="M0 0 C4.95 0 9.9 0 15 0 C20.43104336 12.6520285 25.55766118 25.39402781 30.43945312 38.26782227 C31.52229582 41.12125235 32.61244512 43.97182316 33.703125 46.82226562 C34.39626135 48.64306629 35.08898629 50.46402363 35.78125 52.28515625 C36.10613403 53.13392838 36.43101807 53.9827005 36.76574707 54.85719299 C37.06025757 55.63658737 37.35476807 56.41598175 37.65820312 57.21899414 C38.04836609 58.2455587 38.04836609 58.2455587 38.44641113 59.29286194 C39 61 39 61 39 63 C34.38 63 29.76 63 25 63 C21 51.25 21 51.25 21 49 C12.42 49 3.84 49 -5 49 C-5.99 52.3 -6.98 55.6 -8 59 C-8.66 60.32 -9.32 61.64 -10 63 C-14.62 63 -19.24 63 -24 63 C-16.04305409 41.9834575 -8.03457703 20.98697944 0 0 Z " fill="#F6F6F6" transform="translate(559,668)"/>
<path d="M0 0 C5.28 0 10.56 0 16 0 C16.4125 1.10174561 16.825 2.20349121 17.25 3.33862305 C18.8180278 7.5261519 20.38677236 11.71341193 21.95578003 15.90057373 C22.64971099 17.75261112 23.34349854 19.60470226 24.03713989 21.45684814 C30.40147227 38.44973836 30.40147227 38.44973836 36.91601562 55.38549805 C39 60.78507321 39 60.78507321 39 63 C34.38 63 29.76 63 25 63 C21 51.25 21 51.25 21 49 C12.42 49.33 3.84 49.66 -5 50 C-6.32 53.96 -7.64 57.92 -9 62 C-10 63 -10 63 -12.94140625 63.09765625 C-14.13636719 63.08605469 -15.33132813 63.07445312 -16.5625 63.0625 C-18.35880859 63.04896484 -18.35880859 63.04896484 -20.19140625 63.03515625 C-21.11824219 63.02355469 -22.04507813 63.01195312 -23 63 C-22.25863583 58.21802263 -20.57612174 53.895186 -18.8671875 49.39453125 C-18.39480148 48.13741585 -18.39480148 48.13741585 -17.91287231 46.85490417 C-16.90383023 44.17273776 -15.88938485 41.49264968 -14.875 38.8125 C-14.21581581 37.06067102 -13.55695868 35.30871894 -12.8984375 33.55664062 C-8.67607816 22.34082697 -4.36688085 11.1602788 0 0 Z " fill="#F6F6F6" transform="translate(702,668)"/>
<path d="M0 0 C4.95 0 9.9 0 15 0 C15.47945068 1.32765381 15.95890137 2.65530762 16.45288086 4.02319336 C18.22609574 8.93111989 20.00298343 13.83770979 21.78100586 18.74389648 C22.5512213 20.87080976 23.32042925 22.99808814 24.08862305 25.12573242 C25.19057147 28.17722725 26.29609182 31.22740686 27.40234375 34.27734375 C27.74716293 35.23462875 28.09198212 36.19191376 28.44725037 37.1782074 C28.76750687 38.05904495 29.08776337 38.93988251 29.41772461 39.84741211 C29.69974228 40.62684677 29.98175995 41.40628143 30.27232361 42.20933533 C30.86094472 43.99056985 30.86094472 43.99056985 32 45 C32.34256836 43.99211426 32.68513672 42.98422852 33.03808594 41.94580078 C34.32511316 38.16151657 35.61566941 34.37844343 36.90722656 30.59570312 C37.46285866 28.96679326 38.01756773 27.33756821 38.57128906 25.70800781 C41.51424871 17.04911932 44.48439415 8.44769366 48 0 C52.62 0 57.24 0 62 0 C60.07451581 7.40996988 57.83152752 14.52609449 55.09375 21.671875 C54.7277771 22.63853088 54.3618042 23.60518677 53.98474121 24.60113525 C53.21730082 26.62545465 52.44745798 28.64886478 51.67529297 30.67138672 C50.49838285 33.75423604 49.32863367 36.83972706 48.16015625 39.92578125 C47.4092664 41.90380237 46.6579781 43.88167229 45.90625 45.859375 C45.55929077 46.77305847 45.21233154 47.68674194 44.8548584 48.62811279 C43.00562064 53.46830044 41.07949571 58.25402807 39 63 C34.38 63 29.76 63 25 63 C24.45585449 61.6495459 23.91170898 60.2990918 23.35107422 58.90771484 C21.30622705 53.83401373 19.25935612 48.76113102 17.21191406 43.68847656 C16.33083926 41.50477547 15.45029268 39.32086117 14.5703125 37.13671875 C13.29570585 33.97337678 12.01952938 30.81067594 10.7421875 27.6484375 C10.32990906 26.62764099 9.91763062 25.60684448 9.49285889 24.55511475 C6.75125345 17.79085567 3.92080181 11.07435613 0.96533203 4.40087891 C0 2 0 2 0 0 Z " fill="#F6F6F6" transform="translate(335,668)"/>
<path d="M0 0 C87.78 0 175.56 0 266 0 C266 18.48 266 36.96 266 56 C233.99 56 201.98 56 169 56 C169.0309375 77.16125 169.0309375 77.16125 169.0625 98.75 C169.09555664 147.68914254 168.82991668 196.62465826 168.5 245.5625 C168.49402628 246.44985525 168.48805257 247.3372105 168.48189783 248.25145531 C168.32750045 271.16768159 168.16700318 294.08386212 168 317 C167.67 317 167.34 317 167 317 C166.82644068 293.0417134 166.66028647 269.083379 166.5 245.125 C166.49405146 244.23711556 166.48810292 243.34923112 166.48197412 242.43444109 C166.15803551 194.01853567 165.90064583 145.60466591 165.9375 97.1875 C165.93835602 96.05436623 165.93921204 94.92123245 165.94009399 93.75376129 C165.95089912 80.5024887 165.96995338 67.25124287 166 54 C168.26947697 53.63724344 170.54064735 53.28506814 172.8125 52.9375 C174.07707031 52.74027344 175.34164062 52.54304688 176.64453125 52.33984375 C180 52 180 52 183 53 C185.01825389 53.09901277 187.03963371 53.13826444 189.06030273 53.14526367 C190.93255775 53.15483345 190.93255775 53.15483345 192.84263611 53.16459656 C194.20628826 53.16612522 195.56994093 53.16723919 196.93359375 53.16796875 C198.33219945 53.17118233 199.7308048 53.17454648 201.12940979 53.17805481 C204.06064636 53.18404166 206.99185345 53.18589515 209.9230957 53.18530273 C213.67693209 53.18520109 217.43057942 53.19885725 221.18437099 53.21607494 C224.07286953 53.22719926 226.9613224 53.22922182 229.84984016 53.22869301 C231.23371088 53.22987232 232.61758281 53.23429139 234.00143242 53.24202538 C235.9376977 53.25183413 237.87401846 53.24768067 239.81030273 53.24291992 C240.91155991 53.24434494 242.01281708 53.24576996 243.14744568 53.24723816 C245.96230104 53.00326747 247.61136813 52.4582496 250 51 C250.99 51.66 251.98 52.32 253 53 C255.05709596 53.24055468 255.05709596 53.24055468 257.1875 53.125 C258.445625 53.08375 259.70375 53.0425 261 53 C261.33 52.34 261.66 51.68 262 51 C262.66 51 263.32 51 264 51 C263.9278125 49.88109375 263.855625 48.7621875 263.78125 47.609375 C262.89630037 32.73717346 262.89508719 17.8943904 263 3 C262.44513916 3.16749756 261.89027832 3.33499512 261.31860352 3.50756836 C258.73096505 4.05713841 256.54242699 4.02004202 253.90234375 3.87890625 C252.93619141 3.83056641 251.97003906 3.78222656 250.97460938 3.73242188 C249.97236328 3.67634766 248.97011719 3.62027344 247.9375 3.5625 C245.94663741 3.45919451 243.95575287 3.35631106 241.96484375 3.25390625 C241.0843335 3.20564697 240.20382324 3.1573877 239.29663086 3.10766602 C237.53265982 3.02497108 235.76590834 3 234 3 C234 2.34 234 1.68 234 1 C232.35 1 230.7 1 229 1 C228.67 1.66 228.34 2.32 228 3 C225.69 3 223.38 3 221 3 C221 2.67 221 2.34 221 2 C219.54176788 1.9729957 218.08339325 1.95360213 216.625 1.9375 C215.40683594 1.92009766 215.40683594 1.92009766 214.1640625 1.90234375 C211.95062858 1.85533666 211.95062858 1.85533666 210 3 C206.8444423 3.14677013 203.97683328 2.99625879 200.85546875 2.4921875 C196.52077002 1.9388217 192.36001359 1.93224394 188 2 C179.61612068 2.07229607 171.3546054 1.69933917 163 1 C163 1.66 163 2.32 163 3 C158.05 3 153.1 3 148 3 C148 2.34 148 1.68 148 1 C147.44054687 1.144375 146.88109375 1.28875 146.3046875 1.4375 C139.2657076 3.06710306 128.68625994 5.34312997 122 2 C120.37847485 1.8954878 118.75274693 1.85345917 117.12789917 1.84178162 C115.58398499 1.82709839 115.58398499 1.82709839 114.00888062 1.81211853 C112.87528107 1.80636307 111.74168152 1.8006076 110.57373047 1.79467773 C109.38350281 1.78477814 108.19327515 1.77487854 106.96697998 1.76467896 C103.69862028 1.73845795 100.43026587 1.71660961 97.16186285 1.69667697 C93.74786576 1.6748319 90.33391341 1.64743599 86.91995239 1.62062073 C80.45308783 1.5706738 73.98619846 1.52574241 67.51928532 1.48259836 C60.15780177 1.43324306 52.79636309 1.37831861 45.43492293 1.32291877 C30.28999044 1.20906803 15.14501569 1.10223574 0 1 C0 0.67 0 0.34 0 0 Z " fill="#E043FE" transform="translate(461,277)"/>
<path d="M0 0 C10.89 0 21.78 0 33 0 C33 2.64 33 5.28 33 8 C24.75 8 16.5 8 8 8 C8 11.96 8 15.92 8 20 C15.92 20 23.84 20 32 20 C32 22.31 32 24.62 32 27 C24.08 27 16.16 27 8 27 C8 30.96 8 34.92 8 39 C15.92 39 23.84 39 32 39 C32 41.64 32 44.28 32 47 C21.44 47 10.88 47 0 47 C0 31.49 0 15.98 0 0 Z " fill="#F8F8F9" transform="translate(447,761)"/>
<path d="M0 0 C2.64 0 5.28 0 8 0 C8 6.27 8 12.54 8 19 C15.26 19 22.52 19 30 19 C30 12.73 30 6.46 30 0 C32.64 0 35.28 0 38 0 C38 15.51 38 31.02 38 47 C35.36 47 32.72 47 30 47 C30 40.4 30 33.8 30 27 C22.74 27 15.48 27 8 27 C8 33.6 8 40.2 8 47 C5.36 47 2.72 47 0 47 C0 31.49 0 15.98 0 0 Z " fill="#FAFAFA" transform="translate(572,761)"/>
<path d="M0 0 C3.71565935 2.21525568 6.05559632 4.81950374 8.5 8.375 C8.995 10.355 8.995 10.355 9.5 12.375 C6.2 12.375 2.9 12.375 -0.5 12.375 C-0.5 11.715 -0.5 11.055 -0.5 10.375 C-5.21722858 7.78744573 -10.18987172 6.72695185 -15.53515625 7.7734375 C-18.77650718 8.94335185 -20.3529637 10.1384334 -22.16796875 13.05859375 C-24.54593156 18.97909354 -24.87290163 26.46047022 -22.73828125 32.546875 C-20.86112094 35.54439581 -18.70237059 37.05775433 -15.5 38.375 C-11.19718966 38.96769481 -7.54254578 38.84081833 -3.5625 37.0625 C-1.28127739 35.36402321 -1.28127739 35.36402321 0.5 32.375 C2.6640625 32.08203125 2.6640625 32.08203125 5.125 32.1875 C5.94226563 32.21457031 6.75953125 32.24164062 7.6015625 32.26953125 C8.22804688 32.30433594 8.85453125 32.33914063 9.5 32.375 C9.17751811 37.69595124 6.26241898 40.89605095 2.5 44.375 C-3.87501787 48.49219904 -11.11643705 48.13381883 -18.5 47.375 C-23.47153205 46.00434397 -27.35479448 43.38232026 -30.46875 39.1953125 C-34.69652128 31.73265562 -35.85849129 23.07382824 -33.87890625 14.76953125 C-31.40910648 7.51380838 -27.02943128 2.6097194 -20.140625 -0.7890625 C-13.81812856 -2.79056285 -6.0803975 -2.77961029 0 0 Z " fill="#F5F5F6" transform="translate(536.5,761.625)"/>
<path d="M0 0 C4.29 0 8.58 0 13 0 C13 20.79 13 41.58 13 63 C9.04 63 5.08 63 1 63 C0.67 42.21 0.34 21.42 0 0 Z " fill="#F8F8F8" transform="translate(309,668)"/>
<path d="M0 0 C0.33 0 0.66 0 1 0 C1.00331015 0.9352139 1.00662029 1.8704278 1.01003075 2.83398151 C1.0909482 25.56741644 1.18324005 48.30078336 1.28752708 71.03412342 C1.33769447 82.02769892 1.38413686 93.02126681 1.421875 104.01489258 C1.45476874 113.59454818 1.49458536 123.17414542 1.54279006 132.75373667 C1.56808113 137.82820594 1.58985467 142.90263636 1.60334396 147.97715187 C1.61614069 152.75004139 1.63816912 157.52279784 1.66738319 162.29561424 C1.67647771 164.05041443 1.68215355 165.80523605 1.68421364 167.56005859 C1.687523 169.95012905 1.702964 172.33981919 1.7215271 174.72981262 C1.71959237 175.42922669 1.71765763 176.12864075 1.71566427 176.84924918 C1.75782155 180.46302299 1.93343542 181.90015314 4 185 C3.73071984 187.34159 3.3863569 189.67485831 3 192 C2.91032627 194.66973926 2.85941531 197.3118429 2.8671875 199.98046875 C2.86575241 201.08338005 2.86575241 201.08338005 2.86428833 202.20857239 C2.86361233 203.7506214 2.86542583 205.29267336 2.86962891 206.8347168 C2.87500869 209.19130823 2.86965239 211.5477111 2.86328125 213.90429688 C2.86394168 215.40885459 2.86522213 216.91341218 2.8671875 218.41796875 C2.86516327 219.11907272 2.86313904 219.8201767 2.86105347 220.54252625 C2.8769865 223.86751678 3.12196474 226.79931472 4 230 C3.7525 231.2065625 3.7525 231.2065625 3.5 232.4375 C2.73970772 236.33399794 3.76373672 239.29121016 5 243 C4.67 243.639375 4.34 244.27875 4 244.9375 C2.76046714 246.92189385 2.76046714 246.92189385 3.5 248.875 C4.22712561 251.96528383 3.11937334 254.10279843 2 257 C2.66 257.33 3.32 257.66 4 258 C3.75552124 258.82552368 3.75552124 258.82552368 3.50610352 259.66772461 C2.93795601 262.28591714 2.88715422 264.63767348 2.90234375 267.31640625 C2.90556641 268.32767578 2.90878906 269.33894531 2.91210938 270.38085938 C2.92467773 271.95577148 2.92467773 271.95577148 2.9375 273.5625 C2.94201172 274.61630859 2.94652344 275.67011719 2.95117188 276.75585938 C2.95989135 278.70777511 2.9706625 280.65968352 2.98413086 282.61157227 C3.10014798 300.07304198 3 317.53813442 3 335 C5.79757292 336.23807462 5.79757292 336.23807462 7.875 335.5 C10 335 10 335 12.01879883 335.46044922 C16.29003349 336.23347588 20.49230073 336.14246454 24.82421875 336.1328125 C25.7668306 336.13376923 26.70944244 336.13472595 27.68061829 336.13571167 C29.66671821 336.13639053 31.65282039 336.13455675 33.63891602 336.13037109 C36.68706192 336.12500077 39.73506168 336.13033521 42.78320312 336.13671875 C44.71354199 336.13605827 46.64388077 336.13477773 48.57421875 336.1328125 C49.48878342 336.13483673 50.40334808 336.13686096 51.34562683 336.13894653 C52.19022964 336.13579437 53.03483246 336.13264221 53.9050293 336.12939453 C54.64939743 336.12859894 55.39376556 336.12780334 56.16069031 336.12698364 C58.09695224 336.11175226 58.09695224 336.11175226 60 335 C60.66 334.01 61.32 333.02 62 332 C62 333.98 62 335.96 62 338 C41.54 338 21.08 338 0 338 C0 226.46 0 114.92 0 0 Z " fill="#6113DE" transform="translate(298,277)"/>
<path d="M0 0 C12.87 0 25.74 0 39 0 C39 2.64 39 5.28 39 8 C33.72 8 28.44 8 23 8 C23 20.87 23 33.74 23 47 C20.36 47 17.72 47 15 47 C15 34.13 15 21.26 15 8 C10.05 8 5.1 8 0 8 C0 5.36 0 2.72 0 0 Z " fill="#F9F9FA" transform="translate(383,761)"/>
<path d="M0 0 C0.66 0 1.32 0 2 0 C2 0.66 2 1.32 2 2 C2.66 2 3.32 2 4 2 C4.85059937 31.06516158 5.11183799 60.12012737 5.12338257 89.19598389 C5.12498986 91.85819881 5.12854336 94.52040492 5.13256836 97.18261719 C5.13850872 101.45703365 5.13859011 105.73141454 5.13431931 110.00583267 C5.13333765 111.58492133 5.13387443 113.1640119 5.13615799 114.74309921 C5.14676184 123.67825808 4.91546831 132.55440799 4.37287426 141.47364426 C3.95184502 148.4625504 3.78310297 155.4445289 3.68359375 162.4453125 C3.6524221 164.33816483 3.6524221 164.33816483 3.62062073 166.26925659 C3.55628396 170.22112669 3.49679133 174.17305133 3.4375 178.125 C3.39460314 180.83725136 3.35063443 183.54948499 3.30664062 186.26171875 C3.20072536 192.84109156 3.09876511 199.42051617 3 206 C2.67 206 2.34 206 2 206 C2 139.01 2 72.02 2 3 C-33.31 3 -68.62 3 -105 3 C-105 2.67 -105 2.34 -105 2 C-91.60507093 1.84637231 -78.2100939 1.69819047 -64.81502724 1.5570364 C-58.5957267 1.49132611 -52.3764588 1.42371234 -46.15722656 1.35180664 C-40.15969312 1.28253325 -34.16212552 1.21818379 -28.16450119 1.15730476 C-25.8718612 1.13315692 -23.57923946 1.10720953 -21.28664017 1.07946587 C-18.08516547 1.04102552 -14.88368668 1.00888031 -11.68212891 0.97827148 C-10.72619339 0.96532547 -9.77025787 0.95237946 -8.78535461 0.93904114 C-7.48124382 0.9284819 -7.48124382 0.9284819 -6.15078735 0.91770935 C-5.39307352 0.90941321 -4.63535969 0.90111708 -3.85468483 0.89256954 C-2 1 -2 1 0 2 C0 1.34 0 0.68 0 0 Z " fill="#DA3BFE" transform="translate(566,330)"/>
<path d="M0 0 C16.87308086 -0.48208802 16.87308086 -0.48208802 23 4.6875 C24.53810463 8.24436696 24.12083596 11.33659656 23 15 C20.74548302 17.93087207 19.51557135 18.82814288 16 20 C13.25917841 20.07056698 10.55153023 20.09336154 7.8125 20.0625 C5.234375 20.041875 2.65625 20.02125 0 20 C0 13.4 0 6.8 0 0 Z " fill="#0C0C0C" transform="translate(485,678)"/>
<path d="M0 0 C0.80308594 0.01417969 1.60617187 0.02835938 2.43359375 0.04296875 C3.64208984 0.05263672 3.64208984 0.05263672 4.875 0.0625 C6.87109375 0.23046875 6.87109375 0.23046875 7.87109375 1.23046875 C7.94439706 4.095162 7.96327206 6.92940549 7.93359375 9.79296875 C7.90265625 13.96953125 7.90265625 13.96953125 7.87109375 18.23046875 C13.48109375 18.23046875 19.09109375 18.23046875 24.87109375 18.23046875 C25.16028634 12.68104525 25.16028634 12.68104525 25.43920898 7.13110352 C25.75998264 1.34157986 25.75998264 1.34157986 26.87109375 0.23046875 C30.17109375 0.23046875 33.47109375 0.23046875 36.87109375 0.23046875 C36.87109375 16.40046875 36.87109375 32.57046875 36.87109375 49.23046875 C29.87109375 50.23046875 29.87109375 50.23046875 25.87109375 48.23046875 C25.87109375 41.96046875 25.87109375 35.69046875 25.87109375 29.23046875 C17.45609375 29.72546875 17.45609375 29.72546875 8.87109375 30.23046875 C8.82210937 31.50664063 8.773125 32.7828125 8.72265625 34.09765625 C8.64763184 35.76694947 8.57208387 37.43621921 8.49609375 39.10546875 C8.4496875 40.36810547 8.4496875 40.36810547 8.40234375 41.65625 C8.34433594 42.86474609 8.34433594 42.86474609 8.28515625 44.09765625 C8.25373535 44.84128418 8.22231445 45.58491211 8.18994141 46.35107422 C7.87109375 48.23046875 7.87109375 48.23046875 5.87109375 50.23046875 C3.99609375 50.49609375 3.99609375 50.49609375 1.87109375 50.48046875 C1.16984375 50.485625 0.46859375 50.49078125 -0.25390625 50.49609375 C-2.12890625 50.23046875 -2.12890625 50.23046875 -4.12890625 48.23046875 C-4.38287354 46.25708008 -4.38287354 46.25708008 -4.38769531 43.8125 C-4.39399963 42.89815186 -4.40030396 41.98380371 -4.40679932 41.04174805 C-4.40275085 40.05215088 -4.39870239 39.06255371 -4.39453125 38.04296875 C-4.3964447 37.02952393 -4.39835815 36.0160791 -4.40032959 34.97192383 C-4.40169216 32.82665763 -4.39799072 30.68138322 -4.38964844 28.53613281 C-4.37895007 25.24395303 -4.38954144 21.95231897 -4.40234375 18.66015625 C-4.40102217 16.57942587 -4.3984598 14.49869584 -4.39453125 12.41796875 C-4.39857971 11.42837158 -4.40262817 10.43877441 -4.40679932 9.41918945 C-4.400495 8.50484131 -4.39419067 7.59049316 -4.38769531 6.6484375 C-4.38610413 5.84172607 -4.38451294 5.03501465 -4.38287354 4.20385742 C-4.00333573 1.25475469 -2.92623504 0.31678508 0 0 Z M-2.12890625 1.23046875 C-2.12890625 16.74046875 -2.12890625 32.25046875 -2.12890625 48.23046875 C0.51109375 48.23046875 3.15109375 48.23046875 5.87109375 48.23046875 C5.87109375 41.63046875 5.87109375 35.03046875 5.87109375 28.23046875 C13.13109375 28.23046875 20.39109375 28.23046875 27.87109375 28.23046875 C27.87109375 34.83046875 27.87109375 41.43046875 27.87109375 48.23046875 C30.51109375 48.23046875 33.15109375 48.23046875 35.87109375 48.23046875 C35.87109375 32.72046875 35.87109375 17.21046875 35.87109375 1.23046875 C33.23109375 1.23046875 30.59109375 1.23046875 27.87109375 1.23046875 C27.87109375 7.50046875 27.87109375 13.77046875 27.87109375 20.23046875 C20.61109375 20.23046875 13.35109375 20.23046875 5.87109375 20.23046875 C5.87109375 13.96046875 5.87109375 7.69046875 5.87109375 1.23046875 C3.23109375 1.23046875 0.59109375 1.23046875 -2.12890625 1.23046875 Z " fill="#030303" transform="translate(574.12890625,759.76953125)"/>
<path d="M0 0 C87.78 0 175.56 0 266 0 C266 0.33 266 0.66 266 1 C265.10168457 1.02505615 264.20336914 1.0501123 263.27783203 1.07592773 C259.94925131 1.17098693 256.62085006 1.27022421 253.29248047 1.37231445 C251.8511238 1.41566231 250.40971582 1.45733752 248.96826172 1.49731445 C246.89795459 1.55502088 244.82790568 1.61871371 242.7578125 1.68359375 C241.5114502 1.72025146 240.26508789 1.75690918 238.98095703 1.79467773 C236.07363058 1.80289479 236.07363058 1.80289479 234 3 C234 2.34 234 1.68 234 1 C232.35 1 230.7 1 229 1 C228.67 1.66 228.34 2.32 228 3 C225.69 3 223.38 3 221 3 C221 2.67 221 2.34 221 2 C219.54176788 1.9729957 218.08339325 1.95360213 216.625 1.9375 C215.40683594 1.92009766 215.40683594 1.92009766 214.1640625 1.90234375 C211.95062858 1.85533666 211.95062858 1.85533666 210 3 C206.8444423 3.14677013 203.97683328 2.99625879 200.85546875 2.4921875 C196.52077002 1.9388217 192.36001359 1.93224394 188 2 C179.61612068 2.07229607 171.3546054 1.69933917 163 1 C163 1.66 163 2.32 163 3 C158.05 3 153.1 3 148 3 C148 2.34 148 1.68 148 1 C147.44054687 1.144375 146.88109375 1.28875 146.3046875 1.4375 C139.2657076 3.06710306 128.68625994 5.34312997 122 2 C120.37847485 1.8954878 118.75274693 1.85345917 117.12789917 1.84178162 C115.58398499 1.82709839 115.58398499 1.82709839 114.00888062 1.81211853 C112.87528107 1.80636307 111.74168152 1.8006076 110.57373047 1.79467773 C109.38350281 1.78477814 108.19327515 1.77487854 106.96697998 1.76467896 C103.69862028 1.73845795 100.43026587 1.71660961 97.16186285 1.69667697 C93.74786576 1.6748319 90.33391341 1.64743599 86.91995239 1.62062073 C80.45308783 1.5706738 73.98619846 1.52574241 67.51928532 1.48259836 C60.15780177 1.43324306 52.79636309 1.37831861 45.43492293 1.32291877 C30.28999044 1.20906803 15.14501569 1.10223574 0 1 C0 0.67 0 0.34 0 0 Z " fill="#E748FE" transform="translate(461,277)"/>
<path d="M0 0 C1.98911817 2.98367726 2.87528172 5.36178223 3.9453125 8.76171875 C4.29980469 9.87998047 4.65429688 10.99824219 5.01953125 12.15039062 C5.38433594 13.31763672 5.74914062 14.48488281 6.125 15.6875 C6.49753906 16.86634766 6.87007813 18.04519531 7.25390625 19.25976562 C8.17350932 22.17184201 9.08730714 25.08575046 10 28 C3.73 28 -2.54 28 -9 28 C-6.26457238 18.57797153 -3.12928026 9.29669669 0 0 Z " fill="#0E0E0E" transform="translate(427,680)"/>
<path d="M0 0 C2.40059817 2.40059817 2.89495951 4.22648882 3.9453125 7.4453125 C4.29980469 8.52167969 4.65429688 9.59804688 5.01953125 10.70703125 C5.38433594 11.83496094 5.74914062 12.96289062 6.125 14.125 C6.68380859 15.82849609 6.68380859 15.82849609 7.25390625 17.56640625 C8.17464758 20.37584773 9.08801826 23.18770283 10 26 C4.06 26 -1.88 26 -8 26 C-5.70721651 17.19088448 -2.93923419 8.60858709 0 0 Z " fill="#0D0D0D" transform="translate(709,680)"/>
<path d="M0 0 C1.81247935 2.71871903 2.71075498 4.75827574 3.7265625 7.81640625 C4.0359375 8.74517578 4.3453125 9.67394531 4.6640625 10.63085938 C4.98117187 11.59830078 5.29828125 12.56574219 5.625 13.5625 C5.94984375 14.53380859 6.2746875 15.50511719 6.609375 16.50585938 C9 23.73297991 9 23.73297991 9 26 C3.39 26 -2.22 26 -8 26 C-5.70721651 17.19088448 -2.93923419 8.60858709 0 0 Z " fill="#0B0B0B" transform="translate(566,680)"/>
<path d="M0 0 C0.66 0.33 1.32 0.66 2 1 C3.64886566 8.9183093 3.18628285 17.4916023 3.18530273 25.53735352 C3.18753077 27.59085625 3.2058823 29.64385448 3.22460938 31.69726562 C3.22750977 33.64342773 3.22750977 33.64342773 3.23046875 35.62890625 C3.23457764 36.80525635 3.23868652 37.98160645 3.24291992 39.19360352 C3 42 3 42 1 44 C-2.0390625 44.1953125 -2.0390625 44.1953125 -5.625 44.125 C-7.40777344 44.09792969 -7.40777344 44.09792969 -9.2265625 44.0703125 C-10.59941406 44.03550781 -10.59941406 44.03550781 -12 44 C-12 43.34 -12 42.68 -12 42 C-8.04 42 -4.08 42 0 42 C0 28.14 0 14.28 0 0 Z " fill="#171717" transform="translate(247,689)"/>
<path d="M0 0 C2.26598448 3.39897673 2.23742654 4.56319173 2.1953125 8.54296875 C2.18886719 9.61611328 2.18242187 10.68925781 2.17578125 11.79492188 C2.15902344 12.91447266 2.14226562 14.03402344 2.125 15.1875 C2.11597656 16.31865234 2.10695313 17.44980469 2.09765625 18.61523438 C2.07406862 21.41036828 2.041153 24.20507845 2 27 C4.79757292 28.23807462 4.79757292 28.23807462 6.875 27.5 C9 27 9 27 11.01879883 27.46044922 C15.29003349 28.23347588 19.49230073 28.14246454 23.82421875 28.1328125 C24.7668306 28.13376923 25.70944244 28.13472595 26.68061829 28.13571167 C28.66671821 28.13639053 30.65282039 28.13455675 32.63891602 28.13037109 C35.68706192 28.12500077 38.73506168 28.13033521 41.78320312 28.13671875 C43.71354199 28.13605827 45.64388077 28.13477773 47.57421875 28.1328125 C48.48878342 28.13483673 49.40334808 28.13686096 50.34562683 28.13894653 C51.19022964 28.13579437 52.03483246 28.13264221 52.9050293 28.12939453 C53.64939743 28.12859894 54.39376556 28.12780334 55.16069031 28.12698364 C57.09695224 28.11175226 57.09695224 28.11175226 59 27 C59.66 26.01 60.32 25.02 61 24 C61 25.98 61 27.96 61 30 C40.87 30 20.74 30 0 30 C0 20.1 0 10.2 0 0 Z " fill="#6411F6" transform="translate(299,585)"/>
<path d="M0 0 C1.485 0.99 1.485 0.99 3 2 C3.36914349 3.88591957 3.36914349 3.88591957 3.36076355 6.22671509 C3.36488754 7.11295059 3.36901154 7.9991861 3.3732605 8.91227722 C3.36247467 9.88691422 3.35168884 10.86155121 3.34057617 11.86572266 C3.34123329 13.4023481 3.34123329 13.4023481 3.34190369 14.97001648 C3.33980766 18.36822331 3.31643798 21.76594148 3.29296875 25.1640625 C3.2873757 27.51532725 3.28310423 29.8665955 3.28010559 32.21786499 C3.26863397 38.41578776 3.23914676 44.61350066 3.20599365 50.81134033 C3.17534271 57.1320105 3.1616109 63.45271448 3.14648438 69.7734375 C3.11427937 82.18238403 3.06305501 94.59117459 3 107 C2.67 107 2.34 107 2 107 C2 77.3 2 47.6 2 17 C1.34 16.67 0.68 16.34 0 16 C0 10.72 0 5.44 0 0 Z " fill="#CC36FB" transform="translate(627,331)"/>
<path d="M0 0 C9.57 0 19.14 0 29 0 C28.67 11.88 28.34 23.76 28 36 C27.34 35.67 26.68 35.34 26 35 C26 24.11 26 13.22 26 2 C24.68 2.33 23.36 2.66 22 3 C20.26522228 3.01523838 18.52934954 2.96955899 16.796875 2.87890625 C15.8171875 2.83056641 14.8375 2.78222656 13.828125 2.73242188 C12.30445313 2.64831055 12.30445313 2.64831055 10.75 2.5625 C9.203125 2.48418945 9.203125 2.48418945 7.625 2.40429688 C5.08300961 2.27484366 2.54143407 2.13988672 0 2 C0 1.34 0 0.68 0 0 Z " fill="#CA40FD" transform="translate(698,278)"/>
<path d="M0 0 C2.62024562 3.93036843 1.76090478 5.42078472 1 10 C0.91032627 12.66973926 0.85941531 15.3118429 0.8671875 17.98046875 C0.86623077 18.71574295 0.86527405 19.45101715 0.86428833 20.20857239 C0.86361233 21.7506214 0.86542583 23.29267336 0.86962891 24.8347168 C0.87500869 27.19130823 0.86965239 29.5477111 0.86328125 31.90429688 C0.86394168 33.40885459 0.86522213 34.91341218 0.8671875 36.41796875 C0.86516327 37.11907272 0.86313904 37.8201767 0.86105347 38.54252625 C0.87408285 41.26156671 0.90004736 43.67155912 1.69580078 46.28637695 C1.79618652 46.85187256 1.89657227 47.41736816 2 48 C0.51901245 49.60710144 0.51901245 49.60710144 -1 51 C-1.0253794 44.54045451 -1.04287928 38.0809219 -1.05493164 31.62133789 C-1.05995675 29.4243929 -1.06677788 27.22745124 -1.07543945 25.03051758 C-1.08758475 21.87059708 -1.09324659 18.71072085 -1.09765625 15.55078125 C-1.10281754 14.57039383 -1.10797882 13.59000641 -1.11329651 12.57991028 C-1.11337204 11.65933334 -1.11344757 10.73875641 -1.11352539 9.7902832 C-1.115746 8.9842012 -1.11796661 8.1781192 -1.12025452 7.34761047 C-0.99073534 4.81913526 -0.55273825 2.46773852 0 0 Z " fill="#7F1CFA" transform="translate(300,459)"/>
<path d="M0 0 C7.25501704 7.02829776 13.64235388 14.71363439 19.83764648 22.67407227 C24.13306238 28.19331755 28.54423902 33.60907931 33 39 C32.505 39.99 32.505 39.99 32 41 C30.90526392 40.16049733 29.8248352 39.30233588 28.75 38.4375 C28.14671875 37.96183594 27.5434375 37.48617187 26.921875 36.99609375 C24.85215359 34.84644408 23.60459538 32.56604046 22.18310547 29.96020508 C19.92046401 26.21139198 17.00963575 22.96001259 14.1875 19.625 C12.93805278 18.12692671 11.68934721 16.62823453 10.44140625 15.12890625 C9.55026123 14.0618042 9.55026123 14.0618042 8.64111328 12.97314453 C6.60583755 10.52609032 4.60090539 8.05773987 2.625 5.5625 C1.83996094 4.57443359 1.83996094 4.57443359 1.0390625 3.56640625 C0 2 0 2 0 0 Z " fill="#C533F4" transform="translate(447,390)"/>
<path d="M0 0 C0.33 0 0.66 0 1 0 C1 1.98 1 3.96 1 6 C-14.84 6 -30.68 6 -47 6 C-47 5.67 -47 5.34 -47 5 C-34.61844841 4.31957565 -22.28650772 3.87650799 -9.88427734 4.03710938 C-8.57257568 4.04967773 -8.57257568 4.04967773 -7.234375 4.0625 C-6.46319336 4.07410156 -5.69201172 4.08570313 -4.89746094 4.09765625 C-2.91104575 4.12246038 -2.91104575 4.12246038 -1 3 C-0.67 2.01 -0.34 1.02 0 0 Z " fill="#7313FB" transform="translate(359,609)"/>
<path d="M0 0 C3.27709517 2.49283308 5.935349 4.92256855 8.4375 8.1875 C12.37722375 13.23550827 16.42229564 18.18775187 20.5 23.125 C21.13607178 23.89610107 21.77214355 24.66720215 22.42749023 25.46166992 C23.95102318 27.30830731 25.47519142 29.15441592 27 31 C26.01 31 25.02 31 24 31 C22.16377644 29.10658259 20.5226266 27.23523589 18.875 25.1875 C18.39216553 24.60162109 17.90933105 24.01574219 17.41186523 23.41210938 C15.93320114 21.61448915 14.46645549 19.80758417 13 18 C12.14030417 16.95362013 11.27968442 15.90799838 10.41796875 14.86328125 C8.26838367 12.25026987 6.12856678 9.63014984 4 7 C3.25621094 6.113125 2.51242187 5.22625 1.74609375 4.3125 C0 2 0 2 0 0 Z " fill="#BA2EF2" transform="translate(534,498)"/>
<path d="M0 0 C1.65 0 3.3 0 5 0 C4.67 0.66 4.34 1.32 4 2 C3.34 1.67 2.68 1.34 2 1 C2.33 3.97 2.66 6.94 3 10 C9.93 10.33 16.86 10.66 24 11 C24 11.33 24 11.66 24 12 C16.08 12 8.16 12 0 12 C0 8.04 0 4.08 0 0 Z " fill="#3D3C3D" transform="translate(455,769)"/>
<path d="M0 0 C3.79597133 3.79597133 4.52377528 9.98083595 6 15 C-0.27 15 -6.54 15 -13 15 C-12.67 14.01 -12.34 13.02 -12 12 C-7.05 12.33 -2.1 12.66 3 13 C2.2575 10.89625 2.2575 10.89625 1.5 8.75 C0.34407525 5.47487986 0 3.58063513 0 0 Z " fill="#040404" transform="translate(431,693)"/>
<path d="M0 0 C4.31291957 3.14093056 7.31192072 6.6688786 10.5 10.875 C11.42620623 12.08140307 12.35328344 13.28713796 13.28125 14.4921875 C13.72855469 15.07452148 14.17585938 15.65685547 14.63671875 16.25683594 C16.69660167 18.89071202 18.84341393 21.44491433 21 24 C20.67 24.66 20.34 25.32 20 26 C15.12585594 20.72084111 10.52099333 15.25639643 6.0625 9.625 C5.5780542 9.01833496 5.0936084 8.41166992 4.59448242 7.78662109 C2.56815334 5.20529638 1.04603569 3.13810708 0 0 Z " fill="#C02DF5" transform="translate(394,324)"/>
<path d="M0 0 C0.33 0 0.66 0 1 0 C1 11.88 1 23.76 1 36 C0.01 35.01 -0.98 34.02 -2 33 C-1.72265625 30.15234375 -1.72265625 30.15234375 -1.36376953 28.29638672 C-0.54271346 23.1132636 -0.6117962 17.79995797 -0.4375 12.5625 C-0.39431641 11.35400391 -0.35113281 10.14550781 -0.30664062 8.90039062 C-0.20110596 5.93369394 -0.09899286 2.96692098 0 0 Z " fill="#3E3E3E" transform="translate(277,674)"/>
<path d="M0 0 C1.32 1.32 2.64 2.64 4 4 C3.01 4.33 2.02 4.66 1 5 C1 12.92 1 20.84 1 29 C0.67 29 0.34 29 0 29 C0 19.43 0 9.86 0 0 Z " fill="#474647" transform="translate(622,688)"/>
<path d="M0 0 C1.485 0.99 1.485 0.99 3 2 C3.36328125 4.49609375 3.36328125 4.49609375 3.3125 7.4375 C3.30863281 8.40558594 3.30476562 9.37367188 3.30078125 10.37109375 C3 13 3 13 1 16 C0.22750855 10.59255982 -0.09752461 5.46137814 0 0 Z " fill="#DB41FE" transform="translate(627,331)"/>
<path d="M0 0 C2.3125 0.1875 2.3125 0.1875 5 1 C6.6875 3.3125 6.6875 3.3125 8 6 C8.391875 6.763125 8.78375 7.52625 9.1875 8.3125 C9.455625 8.869375 9.72375 9.42625 10 10 C9.01 10 8.02 10 7 10 C5.17578125 8.06640625 5.17578125 8.06640625 3.3125 5.5625 C2.68988281 4.73878906 2.06726563 3.91507813 1.42578125 3.06640625 C0 1 0 1 0 0 Z " fill="#8119ED" transform="translate(539,591)"/>
<path d="M0 0 C0.99 0 1.98 0 3 0 C4.65 3.3 6.3 6.6 8 10 C7.01 10.495 7.01 10.495 6 11 C2.90407165 7.4912812 1.25805377 4.50802601 0 0 Z " fill="#821CEF" transform="translate(532,580)"/>
<path d="M0 0 C1.65 0 3.3 0 5 0 C5.66 2.31 6.32 4.62 7 7 C6.01 7 5.02 7 4 7 C0 2.65714286 0 2.65714286 0 0 Z " fill="#8E22EF" transform="translate(483,521)"/>
<path d="M0 0 C1.32 0 2.64 0 4 0 C4.33 1.32 4.66 2.64 5 4 C3.02 4.99 3.02 4.99 1 6 C-0.0625 4.125 -0.0625 4.125 -1 2 C-0.67 1.34 -0.34 0.68 0 0 Z " fill="#8E24F5" transform="translate(363,368)"/>
<path d="M0 0 C3.63 0 7.26 0 11 0 C11.33 0.99 11.66 1.98 12 3 C4.5 3.375 4.5 3.375 0 0 Z " fill="#131313" transform="translate(517,809)"/>
<path d="M0 0 C2.9297008 2.82506863 5.50174717 5.78796065 8 9 C7.01 9.33 6.02 9.66 5 10 C0 4.5 0 4.5 0 0 Z " fill="#891EF3" transform="translate(517,561)"/>
<path d="M0 0 C4.08851671 1.3628389 5.54626098 3.52386972 8 7 C7.67 8.32 7.34 9.64 7 11 C4.69 7.37 2.38 3.74 0 0 Z " fill="#EFEEEF" transform="translate(624,690)"/>
<path d="M0 0 C2.475 0.495 2.475 0.495 5 1 C5 2.65 5 4.3 5 6 C3.68 5.67 2.36 5.34 1 5 C0.67 3.35 0.34 1.7 0 0 Z " fill="#7818EA" transform="translate(555,608)"/>
<path d="M0 0 C1.65 1.65 3.3 3.3 5 5 C4.01 5.66 3.02 6.32 2 7 C0.04783565 5.04783565 -0.84826645 3.46800047 -2 1 C-1.34 0.67 -0.68 0.34 0 0 Z " fill="#A531F7" transform="translate(498,455)"/>
<path d="M0 0 C1.0326802 2.78823655 1.04509293 3.8677274 0.0625 6.75 C-0.288125 7.4925 -0.63875 8.235 -1 9 C-2.9451 6.08235 -3.45276317 4.37462715 -4 1 C-2.515 1.99 -2.515 1.99 -1 3 C-0.67 2.01 -0.34 1.02 0 0 Z " fill="#040404" transform="translate(368,706)"/>
<path d="M0 0 C0.99 0.33 1.98 0.66 3 1 C3.6875 3.0625 3.6875 3.0625 4 5 C2.02 5 0.04 5 -2 5 C-1.67 4.34 -1.34 3.68 -1 3 C-0.34 3 0.32 3 1 3 C0.67 2.01 0.34 1.02 0 0 Z " fill="#FCFCFD" transform="translate(542,769)"/>
</svg>
